<?xml version="1.0" encoding="UTF-8"?>
<svg version="1.1" xmlns="http://www.w3.org/2000/svg" width="64" height="64">
<path d="M0 0 C1.07765625 0.03609375 2.1553125 0.0721875 3.265625 0.109375 C4.49539062 0.17898437 4.49539062 0.17898437 5.75 0.25 C5.792721 1.91611905 5.79063832 3.58382885 5.75 5.25 C4.75 6.25 4.75 6.25 -3.25 7.25 C-3.58 15.17 -3.91 23.09 -4.25 31.25 C7.63 31.25 19.51 31.25 31.75 31.25 C31.42 23.33 31.09 15.41 30.75 7.25 C28.44 6.92 26.13 6.59 23.75 6.25 C23.36781233 4.59385343 23.03604898 2.92542976 22.75 1.25 C24.39965169 -0.39965169 26.2976355 0.00050502 28.5625 -0.0625 C29.43519531 -0.09988281 30.30789062 -0.13726563 31.20703125 -0.17578125 C34.64281921 0.39948893 35.61573347 1.52121556 37.75 4.25 C38.28344727 7.39453125 38.28344727 7.39453125 38.31640625 11.0625 C38.32570412 12.03860229 38.32570412 12.03860229 38.33518982 13.03442383 C38.342273 14.40607207 38.33913995 15.77780655 38.32641602 17.14941406 C38.31253676 19.24445088 38.34664064 21.33502711 38.38476562 23.4296875 C38.38571683 24.76562609 38.38385789 26.10157025 38.37890625 27.4375 C38.37963135 28.64792969 38.38035645 29.85835937 38.38110352 31.10546875 C37.75 34.25 37.75 34.25 35.74975586 36.64257812 C31.75305504 38.78421385 28.5934756 38.82706532 24.125 38.78125 C22.8882251 38.78699036 22.8882251 38.78699036 21.62646484 38.79284668 C19.88833389 38.79556097 18.15016175 38.78823358 16.41210938 38.77148438 C13.75818442 38.75006605 11.1069662 38.77130055 8.453125 38.796875 C6.76041072 38.79423164 5.06769811 38.78910647 3.375 38.78125 C2.58528809 38.78934692 1.79557617 38.79744385 0.98193359 38.80578613 C-2.74926261 38.74257632 -4.90421239 38.4352906 -8.24975586 36.64257812 C-10.91333594 33.45655532 -10.88137637 31.56094832 -10.87890625 27.4375 C-10.88131821 26.78676514 -10.88373016 26.13603027 -10.88621521 25.46557617 C-10.88523852 24.09385058 -10.87188652 22.72208472 -10.84692383 21.35058594 C-10.81259495 19.25579409 -10.82626939 17.1652204 -10.84570312 15.0703125 C-10.83880427 13.73435712 -10.82913149 12.39841259 -10.81640625 11.0625 C-10.80552979 9.85207031 -10.79465332 8.64164063 -10.78344727 7.39453125 C-9.68561818 0.92311771 -6.06758563 -0.26380807 0 0 Z " fill="#000000" transform="translate(18.25,23.75)"/>
<path d="M0 0 C3.38679379 1.55096164 5.80077304 3.78224408 8.3828125 6.3984375 C8.89328125 6.87667969 9.40375 7.35492188 9.9296875 7.84765625 C11.375 9.2890625 11.375 9.2890625 13.5078125 12.1484375 C13.328125 15.0078125 13.328125 15.0078125 12.5078125 17.1484375 C8.03940839 16.65194815 6.81793494 16.45855994 3.5078125 13.1484375 C3.1778125 22.0584375 2.8478125 30.9684375 2.5078125 40.1484375 C0.0328125 40.6434375 0.0328125 40.6434375 -2.4921875 41.1484375 C-4.29613625 39.34448875 -3.72924539 36.58165951 -3.80859375 34.14453125 C-3.85048828 32.92958984 -3.89238281 31.71464844 -3.93554688 30.46289062 C-3.97486328 29.18349609 -4.01417969 27.90410156 -4.0546875 26.5859375 C-4.11946289 24.66104492 -4.11946289 24.66104492 -4.18554688 22.69726562 C-4.2920355 19.51443897 -4.39404712 16.33153076 -4.4921875 13.1484375 C-5.25917969 13.81359375 -6.02617187 14.47875 -6.81640625 15.1640625 C-9.4921875 17.1484375 -9.4921875 17.1484375 -12.3046875 16.8984375 C-13.0265625 16.6509375 -13.7484375 16.4034375 -14.4921875 16.1484375 C-14.09460004 11.21473852 -11.62023981 8.60738991 -8.2421875 5.2734375 C-7.76394531 4.76296875 -7.28570312 4.2525 -6.79296875 3.7265625 C-4.58625591 1.51386941 -3.18151678 0.18949473 0 0 Z " fill="#000000" transform="translate(32.4921875,1.8515625)"/>
</svg>
